<svg width="113" height="60" viewBox="0 0 113 60" fill="none" xmlns="http://www.w3.org/2000/svg">
<g clip-path="url(#clip0_291_870)">
<path d="M15.3086 14.2178C14.8083 13.9274 14.1917 13.9274 13.6914 14.2178L1.30823 21.4063C0.808085 21.6967 0.5 22.2331 0.5 22.8136V37.1863C0.5 37.767 0.808191 38.3035 1.30847 38.5938L5.54333 41.0512C5.97449 41.3014 6.51342 40.9886 6.51342 40.4882V26.3029C6.51342 25.7225 6.82143 25.1861 7.32147 24.8957L13.6914 21.1968C14.1918 20.9063 14.8083 20.9062 15.3087 21.1966L21.6831 24.8958C22.1834 25.1861 22.4915 25.7226 22.4915 26.3032V33.697C22.4915 34.2776 22.1834 34.8141 21.6831 35.1044L15.3088 38.8035C14.8084 39.0939 14.1917 39.0938 13.6914 38.8032L11.1235 37.3115C10.6923 37.061 10.1531 37.3737 10.1531 37.8743V42.7888C10.1531 43.3692 10.461 43.9055 10.9609 44.1959L13.6912 45.7819C14.1917 46.0726 14.8084 46.0727 15.3089 45.7822L27.6918 38.5938C28.1919 38.3035 28.5 37.7671 28.5 37.1865V22.8136C28.5 22.2331 28.1919 21.6967 27.6918 21.4063L15.3086 14.2178Z" fill="#1D3068"/>
<path d="M18.205 32.898C18.6053 32.6658 18.8518 32.2365 18.8518 31.772V28.2232C18.8518 27.7587 18.6053 27.3294 18.205 27.0972L15.147 25.3228C14.7467 25.0905 14.2534 25.0906 13.8531 25.3231L10.7994 27.0971C10.3994 27.3294 10.1531 27.7585 10.1531 28.2227V31.7724C10.1531 32.2367 10.3994 32.6658 10.7994 32.8981L13.8531 34.6721C14.2534 34.9046 14.7467 34.9047 15.147 34.6724L18.205 32.898Z" fill="#1D3068"/>
<path d="M50.5409 18.5599H53.7521V36.8843H50.5409V18.5599Z" fill="#1D3068"/>
<path d="M68.7606 36.8843H65.5495V35.1283C65.1417 35.756 64.598 36.2481 63.9184 36.6044C63.2388 36.9437 62.3893 37.1134 61.3699 37.1134C60.4354 37.1134 59.5689 36.9437 58.7703 36.6044C57.9888 36.2481 57.3092 35.7645 56.7315 35.1537C56.1538 34.5259 55.7036 33.7963 55.3808 32.9649C55.0749 32.1166 54.922 31.2088 54.922 30.2417C54.922 29.2576 55.0749 28.3499 55.3808 27.5185C55.7036 26.6701 56.1538 25.9406 56.7315 25.3297C57.3092 24.702 57.9888 24.2184 58.7703 23.879C59.5689 23.5227 60.4439 23.3446 61.3953 23.3446C62.4148 23.3446 63.2558 23.5227 63.9184 23.879C64.598 24.2184 65.1417 24.702 65.5495 25.3297V23.5991H68.7606V36.8843ZM65.5495 29.6309C65.4305 28.7486 65.0483 28.0105 64.4026 27.4167C63.757 26.8059 62.933 26.5005 61.9305 26.5005C61.3699 26.5005 60.8601 26.6023 60.4014 26.8059C59.9427 27.0095 59.5519 27.281 59.2291 27.6203C58.9232 27.9596 58.6854 28.3584 58.5155 28.8165C58.3456 29.2746 58.2606 29.7582 58.2606 30.2672C58.2606 30.7592 58.3456 31.2258 58.5155 31.667C58.6854 32.1081 58.9232 32.4983 59.2291 32.8377C59.5519 33.177 59.9427 33.4485 60.4014 33.6521C60.8601 33.8557 61.3699 33.9575 61.9305 33.9575C62.4233 33.9575 62.882 33.8812 63.3067 33.7285C63.7315 33.5588 64.0968 33.3382 64.4026 33.0667C64.7254 32.7783 64.9803 32.4474 65.1672 32.0742C65.3711 31.6839 65.4985 31.2767 65.5495 30.8525V29.6309Z" fill="#1D3068"/>
<path d="M75.3785 19.6797V23.5991H78.6916V26.2714H75.3785V32.2778C75.3785 33.0243 75.5484 33.5249 75.8882 33.7794C76.228 34.0339 76.6952 34.1611 77.2899 34.1611C77.5108 34.1611 77.7317 34.1526 77.9525 34.1357C78.1904 34.1017 78.4368 34.0678 78.6916 34.0339V36.9607C77.9101 37.0625 77.188 37.1134 76.5253 37.1134C75.8457 37.1134 75.2341 37.0455 74.6904 36.9098C74.1467 36.7741 73.688 36.545 73.3142 36.2226C72.9404 35.8833 72.6516 35.4506 72.4477 34.9246C72.2608 34.3817 72.1673 33.72 72.1673 32.9395V26.2714H69.8991V23.5991H72.1673V19.6797H75.3785Z" fill="#1D3068"/>
<path d="M79.6119 19.9087C79.6119 19.3828 79.7988 18.9331 80.1726 18.5599C80.5633 18.1866 81.0306 17.9999 81.5743 17.9999C82.1179 17.9999 82.5767 18.1866 82.9505 18.5599C83.3412 18.9331 83.5366 19.3828 83.5366 19.9087C83.5366 20.4517 83.3412 20.9098 82.9505 21.2831C82.5767 21.6394 82.1179 21.8175 81.5743 21.8175C81.0306 21.8175 80.5633 21.6394 80.1726 21.2831C79.7988 20.9098 79.6119 20.4517 79.6119 19.9087ZM79.9687 23.5991H83.1798V36.8843H79.9687V23.5991Z" fill="#1D3068"/>
<path d="M112.5 36.8844H109.289V35.1283C108.881 35.756 108.337 36.2481 107.658 36.6044C106.978 36.9437 106.128 37.1134 105.109 37.1134C104.175 37.1134 103.308 36.9437 102.51 36.6044C101.728 36.2481 101.048 35.7645 100.471 35.1537C99.893 34.5259 99.4428 33.7963 99.12 32.9649C98.8142 32.1166 98.6612 31.2088 98.6612 30.2417C98.6612 29.2576 98.8142 28.3499 99.12 27.5185C99.4428 26.6701 99.893 25.9406 100.471 25.3297C101.048 24.702 101.728 24.2184 102.51 23.8791C103.308 23.5227 104.183 23.3446 105.135 23.3446C106.154 23.3446 106.995 23.5227 107.658 23.8791C108.337 24.2184 108.881 24.702 109.289 25.3297V23.5991H112.5V36.8844ZM109.289 29.6309C109.17 28.7486 108.787 28.0105 108.142 27.4167C107.496 26.8059 106.672 26.5005 105.67 26.5005C105.109 26.5005 104.599 26.6023 104.141 26.8059C103.682 27.0095 103.291 27.281 102.968 27.6203C102.662 27.9596 102.425 28.3584 102.255 28.8165C102.085 29.2746 102 29.7582 102 30.2672C102 30.7592 102.085 31.2258 102.255 31.667C102.425 32.1081 102.662 32.4984 102.968 32.8377C103.291 33.177 103.682 33.4485 104.141 33.6521C104.599 33.8557 105.109 33.9575 105.67 33.9575C106.162 33.9575 106.621 33.8812 107.046 33.7285C107.471 33.5588 107.836 33.3382 108.142 33.0667C108.465 32.7783 108.72 32.4474 108.906 32.0742C109.11 31.6839 109.238 31.2767 109.289 30.8525V29.6309Z" fill="#1D3068"/>
<path d="M85.1212 23.5991H88.3324V25.7115C88.8251 24.9819 89.4538 24.405 90.2183 23.9809C90.9829 23.5567 91.8579 23.3446 92.8433 23.3446C93.5569 23.3446 94.2026 23.4634 94.7802 23.7009C95.3579 23.9384 95.8421 24.2778 96.2329 24.7189C96.6407 25.1431 96.9465 25.6521 97.1504 26.246C97.3713 26.8398 97.4817 27.493 97.4817 28.2057V36.8844H94.2705V29.2491C94.2705 28.3669 94.0242 27.6882 93.5314 27.2131C93.0387 26.738 92.4101 26.5005 91.6455 26.5005C91.1698 26.5005 90.728 26.6108 90.3203 26.8313C89.9295 27.0349 89.5897 27.3064 89.3008 27.6458C89.012 27.9851 88.7826 28.3838 88.6127 28.8419C88.4428 29.2831 88.3494 29.7327 88.3324 30.1908V36.8844H85.1212V23.5991Z" fill="#1D3068"/>
<path d="M35.54 41.9999V23.5991H38.7511V25.3297C39.1759 24.702 39.7196 24.2184 40.3822 23.8791C41.0618 23.5227 41.9113 23.3446 42.9308 23.3446C43.8822 23.3446 44.7487 23.5227 45.5303 23.8791C46.3118 24.2184 46.9915 24.702 47.5691 25.3297C48.1468 25.9406 48.5885 26.6701 48.8944 27.5185C49.2172 28.3499 49.3786 29.2576 49.3786 30.2417C49.3786 31.2088 49.2172 32.1166 48.8944 32.9649C48.5885 33.7963 48.1468 34.5259 47.5691 35.1537C46.9915 35.7645 46.3118 36.2481 45.5303 36.6044C44.7487 36.9437 43.8822 37.1134 42.9308 37.1134C41.9113 37.1134 41.0618 36.9437 40.3822 36.6044C39.7196 36.2481 39.1759 35.756 38.7511 35.1283V41.9999H35.54ZM38.7511 29.6309V30.8525C38.8021 31.2767 38.9211 31.6839 39.1079 32.0742C39.3118 32.4474 39.5667 32.7783 39.8725 33.0667C40.1953 33.3382 40.5691 33.5588 40.9939 33.7285C41.4186 33.8812 41.8774 33.9575 42.3701 33.9575C42.9308 33.9575 43.4405 33.8557 43.8992 33.6521C44.358 33.4485 44.7402 33.177 45.0461 32.8377C45.3689 32.4984 45.6152 32.1081 45.7851 31.667C45.955 31.2258 46.04 30.7592 46.04 30.2672C46.04 29.7582 45.955 29.2746 45.7851 28.8165C45.6152 28.3584 45.3689 27.9596 45.0461 27.6203C44.7402 27.281 44.358 27.0095 43.8992 26.8059C43.4405 26.6023 42.9308 26.5005 42.3701 26.5005C41.3677 26.5005 40.5436 26.8059 39.898 27.4167C39.2524 28.0105 38.8701 28.7486 38.7511 29.6309Z" fill="#1D3068"/>
</g>
<defs>
<clipPath id="clip0_291_870">
<rect x="0.5" y="14" width="112" height="32" fill="white"/>
</clipPath>
</defs>
</svg>
