<svg width="25" height="26" viewBox="0 0 25 26" fill="none" xmlns="http://www.w3.org/2000/svg">
    <defs>
        <linearGradient id="paint0_linear_291_271" x1="20.8333" y1="4.66667" x2="14.9913"
            y2="10.4335" gradientUnits="userSpaceOnUse">
            <stop stop-color="#FFB301" />
            <stop offset="1" stop-color="#FFC533" />
        </linearGradient>
        <linearGradient id="paint1_linear_291_271" x1="11.4583" y1="6.75" x2="11.4583" y2="18.2083"
            gradientUnits="userSpaceOnUse">
            <stop stop-color="#9FC7FF" />
            <stop offset="1" stop-color="#9BC1F5" />
        </linearGradient>
        <radialGradient id="paint2_radial_291_271" cx="0" cy="0" r="1"
            gradientUnits="userSpaceOnUse"
            gradientTransform="translate(7.8479 -11.3211) rotate(-90) scale(10.9153 3.48805)">
            <stop stop-color="#486DA8" stop-opacity="0.4" />
            <stop offset="1" stop-color="#486DA8" stop-opacity="0" />
        </radialGradient>
        <clipPath id="clip0_291_271">
            <rect width="25" height="25" fill="white" transform="translate(0 0.5)" />
        </clipPath>
    </defs>
    <g clip-path="url(#clip0_291_271)">
        <path
            d="M16.6667 13C18.9679 13 20.8333 11.1345 20.8333 8.83334C20.8333 6.53215 18.9679 4.66667 16.6667 4.66667C14.3655 4.66667 12.5 6.53215 12.5 8.83334C12.5 11.1345 14.3655 13 16.6667 13Z"
            fill="url(#paint0_linear_291_271)" />
        <path
            d="M16.125 1.26042L16.3959 2.79896C16.5771 3.825 15.0375 4.09584 14.8573 3.06979L14.5865 1.53125C14.4052 0.505211 15.9448 0.234378 16.125 1.26042ZM21.6386 3.09479L20.7427 4.375C20.1448 5.22813 18.8656 4.33229 19.4625 3.47917L20.3584 2.19896C20.9563 1.34584 22.2354 2.24167 21.6386 3.09479ZM10.9292 3.86146L12.2094 4.75729C13.0625 5.35521 12.1667 6.63438 11.3136 6.0375L10.0334 5.14167C9.18023 4.54375 10.0761 3.26459 10.9292 3.86146ZM22.0219 11.6281L23.3021 12.524C24.1552 13.1219 23.2594 14.401 22.4063 13.8042L21.1261 12.9083C20.2729 12.3104 21.1688 11.0313 22.0219 11.6281ZM24.2406 8.29063L22.7021 8.56146C21.6761 8.74271 21.4052 7.20313 22.4313 7.02292L23.9698 6.75209C24.9959 6.57084 25.2667 8.11042 24.2406 8.29063Z"
            fill="#FFB300" />
        <path
            d="M7.40521 20.774L6.31146 23.3771C6.1448 23.775 6.33125 24.2333 6.72917 24.4C7.12709 24.5667 7.58542 24.3802 7.75209 23.9823L8.84584 21.3792C9.0125 20.9813 8.82605 20.5229 8.42813 20.3563C8.03021 20.1896 7.57188 20.376 7.40521 20.774ZM12.6135 19.7323L11.5198 22.3354C11.3531 22.7333 11.5396 23.1917 11.9375 23.3583C12.3354 23.525 12.7938 23.3385 12.9604 22.9406L14.0542 20.3375C14.2208 19.9396 14.0344 19.4813 13.6365 19.3146C13.2385 19.1479 12.7802 19.3344 12.6135 19.7323Z"
            fill="#66AFEB" />
        <path
            d="M6.25001 18.2083C3.94897 18.2083 2.08334 16.3427 2.08334 14.0417C2.08334 11.7406 3.94897 9.875 6.25001 9.875C6.68438 9.875 7.10209 9.94167 7.49584 10.0646C8.0823 8.14583 9.86772 6.75 11.9792 6.75C14.5677 6.75 16.6667 8.84896 16.6667 11.4375C16.6667 11.6823 16.6479 11.9219 16.6115 12.1562C16.9531 12.0281 17.3219 11.9583 17.7083 11.9583C19.4344 11.9583 20.8333 13.3573 20.8333 15.0833C20.8333 16.8094 19.4344 18.2083 17.7083 18.2083H6.25001Z"
            fill="url(#paint1_linear_291_271)" />
        <path
            d="M7.29168 11.4375C7.29168 14.026 9.39064 16.125 11.9792 16.125C14.324 16.125 16.2656 14.4042 16.6115 12.1562C16.9531 12.0281 17.3219 11.9583 17.7083 11.9583C19.4344 11.9583 20.8333 13.3573 20.8333 15.0833C20.8333 16.8094 19.4344 18.2083 17.7083 18.2083H6.25001C3.94897 18.2083 2.08334 16.3427 2.08334 14.0417C2.08334 11.7406 3.94897 9.875 6.25001 9.875C6.68438 9.875 7.10209 9.94167 7.49584 10.0646C7.36251 10.499 7.29168 10.9594 7.29168 11.4375Z"
            fill="url(#paint2_radial_291_271)" />
    </g>
</svg>
