<svg width="41" height="40" viewBox="0 0 41 40" fill="none" xmlns="http://www.w3.org/2000/svg">
    <defs>
        <linearGradient id="paint0_linear_291_422" x1="18.8333" y1="13.3332" x2="18.8333"
            y2="31.6665" gradientUnits="userSpaceOnUse">
            <stop stop-color="#9FC7FF" />
            <stop offset="1" stop-color="#9BC1F5" />
        </linearGradient>
        <radialGradient id="paint1_radial_291_422" cx="0" cy="0" r="1"
            gradientUnits="userSpaceOnUse"
            gradientTransform="translate(15.4532 -18.914) rotate(-90) scale(17.4645 5.58088)">
            <stop stop-color="#486DA8" stop-opacity="0.4" />
            <stop offset="1" stop-color="#486DA8" stop-opacity="0" />
        </radialGradient>
    </defs>
    <path opacity="0.32"
        d="M32.1667 23.3332C34.9283 23.3332 37.1667 21.0949 37.1667 18.3332C37.1667 15.5715 34.9283 13.3332 32.1667 13.3332H32.115C32.1483 13.0599 32.1667 12.7815 32.1667 12.4999C32.1667 8.81821 29.1817 5.83321 25.5 5.83321C22.5833 5.83321 20.1033 7.70654 19.2 10.3149C18.5583 10.1099 17.8767 9.99987 17.1667 9.99987C13.485 9.99987 10.5 12.9849 10.5 16.6665C10.5 20.3482 13.485 23.3332 17.1667 23.3332C17.7417 23.3332 18.3 23.2599 18.8333 23.1232V23.3332H32.1667Z"
        fill="#73A5E6" />
    <path
        d="M10.4999 31.6665C6.81825 31.6665 3.83325 28.6815 3.83325 24.9999C3.83325 21.3182 6.81825 18.3332 10.4999 18.3332C11.1949 18.3332 11.8633 18.4399 12.4933 18.6365C13.4316 15.5665 16.2883 13.3332 19.6666 13.3332C23.8083 13.3332 27.1666 16.6915 27.1666 20.8332C27.1666 21.2249 27.1366 21.6082 27.0782 21.9832C27.6249 21.7782 28.2149 21.6665 28.8333 21.6665C31.5949 21.6665 33.8332 23.9049 33.8332 26.6665C33.8332 29.4282 31.5949 31.6665 28.8333 31.6665H10.4999Z"
        fill="url(#paint0_linear_291_422)" />
    <path
        d="M12.1666 20.8332C12.1666 24.9749 15.5249 28.3332 19.6666 28.3332C23.4182 28.3332 26.5249 25.5799 27.0782 21.9832C27.6249 21.7782 28.2149 21.6665 28.8333 21.6665C31.5949 21.6665 33.8332 23.9049 33.8332 26.6665C33.8332 29.4282 31.5949 31.6665 28.8333 31.6665H10.4999C6.81825 31.6665 3.83325 28.6815 3.83325 24.9999C3.83325 21.3182 6.81825 18.3332 10.4999 18.3332C11.1949 18.3332 11.8633 18.4399 12.4933 18.6365C12.2799 19.3315 12.1666 20.0682 12.1666 20.8332Z"
        fill="url(#paint1_radial_291_422)" />

</svg>
