<svg width="40" height="40" viewBox="0 0 40 40" fill="none" xmlns="http://www.w3.org/2000/svg">
    <defs>
        <linearGradient id="paint0_linear_291_812" x1="19.9998" y1="11.6665" x2="19.9998"
            y2="28.111" gradientUnits="userSpaceOnUse">
            <stop stop-color="#FFC227" />
            <stop offset="1" stop-color="#FFB300" />
        </linearGradient>
    </defs>
    <path
        d="M19.9998 28.3332C24.6022 28.3332 28.3332 24.6022 28.3332 19.9999C28.3332 15.3975 24.6022 11.6665 19.9998 11.6665C15.3975 11.6665 11.6665 15.3975 11.6665 19.9999C11.6665 24.6022 15.3975 28.3332 19.9998 28.3332Z"
        fill="url(#paint0_linear_291_812)" />
    <path
        d="M27.8316 4.3382L25.8732 9.06654C25.2349 10.6065 22.9249 9.64987 23.5632 8.10987L25.5216 3.38154C26.1599 1.84154 28.4699 2.7982 27.8316 4.3382ZM16.4216 31.8832L14.4632 36.6115C13.8249 38.1515 11.5149 37.1949 12.1532 35.6549L14.1116 30.9265C14.7499 29.3865 17.0599 30.3432 16.4216 31.8832ZM36.6082 14.4682L31.8799 16.4265C30.3399 17.0649 29.3832 14.7549 30.9232 14.1165L35.6516 12.1582C37.1916 11.5199 38.1482 13.8299 36.6082 14.4682ZM9.06324 25.8782L4.33491 27.8365C2.79491 28.4749 1.83824 26.1649 3.37824 25.5265L8.10657 23.5682C9.64657 22.9299 10.6032 25.2399 9.06324 25.8782ZM35.6516 27.8382L30.9232 25.8799C29.3832 25.2415 30.3399 22.9315 31.8799 23.5699L36.6082 25.5282C38.1482 26.1665 37.1916 28.4765 35.6516 27.8382ZM8.10657 16.4282L3.37824 14.4699C1.83824 13.8315 2.79491 11.5215 4.33491 12.1599L9.06324 14.1182C10.6032 14.7565 9.64657 17.0665 8.10657 16.4282ZM14.4616 3.37987L16.4199 8.1082C17.0582 9.6482 14.7482 10.6049 14.1099 9.06487L12.1516 4.33654C11.5132 2.79654 13.8232 1.83987 14.4616 3.37987ZM25.8716 30.9249L27.8299 35.6532C28.4682 37.1932 26.1582 38.1499 25.5199 36.6099L23.5616 31.8815C22.9232 30.3415 25.2332 29.3849 25.8716 30.9249Z"
        fill="#FFB300" />

</svg>
